<?xml version="1.0" encoding="UTF-8" standalone="no"?>
<!-- Created with Inkscape (http://www.inkscape.org/) -->

<svg
   xmlns:dc="http://purl.org/dc/elements/1.1/"
   xmlns:cc="http://creativecommons.org/ns#"
   xmlns:rdf="http://www.w3.org/1999/02/22-rdf-syntax-ns#"
   xmlns:svg="http://www.w3.org/2000/svg"
   xmlns="http://www.w3.org/2000/svg"
   xmlns:sodipodi="http://sodipodi.sourceforge.net/DTD/sodipodi-0.dtd"
   xmlns:inkscape="http://www.inkscape.org/namespaces/inkscape"
   width="110mm"
   height="110mm"
   viewBox="0 0 389.76378 389.76378"
   id="svg2"
   version="1.1"
   inkscape:version="0.91 r"
   sodipodi:docname="satshakit_inside.svg">
  <defs
     id="defs4">
    <pattern
       id="EMFhbasepattern"
       patternUnits="userSpaceOnUse"
       width="6"
       height="6"
       x="0"
       y="0" />
  </defs>
  <sodipodi:namedview
     id="base"
     pagecolor="#ffffff"
     bordercolor="#666666"
     borderopacity="1.0"
     inkscape:pageopacity="0.0"
     inkscape:pageshadow="2"
     inkscape:zoom="0.49497475"
     inkscape:cx="-241.9681"
     inkscape:cy="197.80293"
     inkscape:document-units="px"
     inkscape:current-layer="layer1"
     showgrid="false"
     inkscape:window-width="1920"
     inkscape:window-height="1025"
     inkscape:window-x="1364"
     inkscape:window-y="-3"
     inkscape:window-maximized="1"
     showguides="false"
     inkscape:snap-bbox="true"
     inkscape:bbox-paths="true"
     inkscape:bbox-nodes="false"
     inkscape:snap-bbox-edge-midpoints="false"
     inkscape:snap-bbox-midpoints="true"
     inkscape:object-paths="true"
     inkscape:snap-intersection-paths="true"
     inkscape:object-nodes="true"
     inkscape:snap-smooth-nodes="true"
     inkscape:snap-midpoints="true"
     inkscape:snap-global="true" />
  <metadata
     id="metadata7">
    <rdf:RDF>
      <cc:Work
         rdf:about="">
        <dc:format>image/svg+xml</dc:format>
        <dc:type
           rdf:resource="http://purl.org/dc/dcmitype/StillImage" />
        <dc:title></dc:title>
      </cc:Work>
    </rdf:RDF>
  </metadata>
  <g
     inkscape:label="Layer 1"
     inkscape:groupmode="layer"
     id="layer1"
     transform="translate(0,-662.59843)">
    <flowRoot
       xml:space="preserve"
       id="flowRoot4136"
       style="font-style:normal;font-weight:normal;font-size:40px;line-height:125%;font-family:Sans;letter-spacing:0px;word-spacing:0px;fill:#000000;fill-opacity:1;stroke:none;stroke-width:1px;stroke-linecap:butt;stroke-linejoin:miter;stroke-opacity:1"><flowRegion
         id="flowRegion4138"><rect
           id="rect4140"
           width="545.71429"
           height="125.71429"
           x="68.571426"
           y="552.36218" /></flowRegion><flowPara
         id="flowPara4142" /></flowRoot>    <flowRoot
       xml:space="preserve"
       id="flowRoot4706-6-1"
       style="font-style:normal;font-variant:normal;font-weight:normal;font-stretch:normal;font-size:40px;line-height:125%;font-family:Purisa;-inkscape-font-specification:'Purisa, Normal';text-align:start;letter-spacing:0px;word-spacing:0px;writing-mode:lr-tb;text-anchor:start;fill:#000000;fill-opacity:1;stroke:none;stroke-width:1px;stroke-linecap:butt;stroke-linejoin:miter;stroke-opacity:1"
       transform="translate(498.75648,113.66427)"><flowRegion
         id="flowRegion4708-3-2"><rect
           id="rect4710-7-4"
           width="184.85791"
           height="101.01526"
           x="163.64471"
           y="-84.572792"
           style="font-style:normal;font-variant:normal;font-weight:normal;font-stretch:normal;font-size:40px;line-height:125%;font-family:Purisa;-inkscape-font-specification:'Purisa, Normal';text-align:start;writing-mode:lr-tb;text-anchor:start" /></flowRegion><flowPara
         id="flowPara4742-4"
         style="font-style:normal;font-variant:normal;font-weight:normal;font-stretch:normal;font-size:43.33374786px;line-height:89.99999762%;font-family:monospace;-inkscape-font-specification:'monospace, Normal';text-align:center;writing-mode:lr-tb;text-anchor:middle" /></flowRoot>    <flowRoot
       xml:space="preserve"
       id="flowRoot4706-6-1-8"
       style="font-style:normal;font-variant:normal;font-weight:normal;font-stretch:normal;font-size:40px;line-height:125%;font-family:Purisa;-inkscape-font-specification:'Purisa, Normal';text-align:start;letter-spacing:0px;word-spacing:0px;writing-mode:lr-tb;text-anchor:start;fill:#000000;fill-opacity:1;stroke:none;stroke-width:1px;stroke-linecap:butt;stroke-linejoin:miter;stroke-opacity:1"
       transform="translate(410.16624,5.07638)"><flowRegion
         id="flowRegion4708-3-2-0"><rect
           id="rect4710-7-4-9"
           width="184.85791"
           height="101.01526"
           x="163.64471"
           y="-84.572792"
           style="font-style:normal;font-variant:normal;font-weight:normal;font-stretch:normal;font-size:40px;line-height:125%;font-family:Purisa;-inkscape-font-specification:'Purisa, Normal';text-align:start;writing-mode:lr-tb;text-anchor:start" /></flowRegion><flowPara
         id="flowPara4742-4-5"
         style="font-style:normal;font-variant:normal;font-weight:normal;font-stretch:normal;font-size:43.33374786px;line-height:89.99999762%;font-family:monospace;-inkscape-font-specification:'monospace, Normal';text-align:center;writing-mode:lr-tb;text-anchor:middle" /></flowRoot>    <text
       xml:space="preserve"
       style="font-style:normal;font-weight:normal;font-size:40px;line-height:125%;font-family:sans-serif;letter-spacing:0px;word-spacing:0px;fill:#000000;fill-opacity:1;stroke:none;stroke-width:1px;stroke-linecap:butt;stroke-linejoin:miter;stroke-opacity:1"
       x="336.03113"
       y="78.510025"
       id="text4243"
       sodipodi:linespacing="125%"><tspan
         sodipodi:role="line"
         id="tspan4245"
         x="336.03113"
         y="78.510025" /></text>
    <rect
       style="fill:#ffffff;fill-opacity:1;stroke:none;stroke-width:0.35433072;stroke-miterlimit:4;stroke-dasharray:none;stroke-opacity:1"
       id="rect4835"
       width="0"
       height="123.11785"
       x="681.97327"
       y="136.65919" />
    <path
       style="fill:#000000"
       d="m 264.38619,699.99344 c -27.92286,0.10492 -57.37073,3.73669 -83.36858,10.8042 -45.73303,12.43247 -94.146847,39.05248 -127.882207,70.31572 -32.27847,29.9131 -49.3298102,71.65426 -46.4805902,113.78576 0.33235,4.91441 0.87189,10.56933 1.19978,12.56673 4.8803402,29.72977 17.8034102,54.34935 39.5536902,75.35525 28.39486,27.4231 65.004667,41.9999 115.220747,45.8779 9.3002,0.7182 36.49425,0.2473 45.54704,-0.7893 17.21387,-1.9711 30.94213,-4.9155 47.92997,-10.2803 55.85802,-17.64006 93.93956,-45.69797 114.63479,-84.45763 12.54938,-23.5035 18.08437,-48.13328 16.32907,-72.66634 -1.30779,-18.27907 -5.26164,-32.40808 -13.12533,-46.90317 -15.56552,-28.69162 -42.98399,-50.52297 -76.38997,-60.82475 -8.64843,-2.66703 -21.17842,-5.3263 -28.45991,-6.04049 l -3.46252,-0.34002 0,15.94781 0,15.94781 3.7213,0.37644 c 25.20325,2.55127 48.71624,10.79486 64.44947,22.59373 4.32045,3.24004 11.68674,10.31088 15.47325,14.85317 11.14901,13.3746 18.48806,27.64506 21.83624,42.46213 1.50883,6.67755 1.80755,20.95258 0.5786,27.65582 -2.88563,15.73997 -9.02184,30.13919 -18.81186,44.13967 -6.33423,9.05848 -12.35223,15.96669 -21.33715,24.49852 -20.82698,19.77695 -45.91305,33.98315 -76.46938,43.30351 -50.72804,15.47319 -108.72261,13.88659 -153.76886,-4.20683 -32.369167,-13.0015 -57.020667,-34.99043 -71.773777,-64.02195 -11.48215,-22.59487 -13.44745,-47.15627 -5.53301,-69.13434 8.1791,-22.71302 22.92044,-44.2955 43.11606,-63.12506 14.57936,-13.59328 27.34303,-21.93098 49.466157,-32.31544 34.46711,-16.1786 63.52455,-26.27471 89.5135,-31.10108 39.87139,-7.40444 87.5193,-3.77084 113.71971,8.67215 2.78339,1.3219 5.97975,3.04916 7.1025,3.83907 1.12265,0.78989 2.12623,1.35629 2.2313,1.2577 0.10506,-0.0986 1.39071,-8.07852 2.85618,-17.73289 1.46539,-9.65435 2.81464,-18.35806 2.99845,-19.34103 0.33326,-1.78219 0.32172,-1.78962 -3.6788,-2.94914 -18.84792,-5.46292 -42.29805,-8.11592 -66.93586,-8.02333 z"
       id="path4159-9"
       inkscape:connector-curvature="0" />
    <text
       xml:space="preserve"
       style="font-style:normal;font-weight:normal;font-size:47.84354401px;line-height:125%;font-family:Sans;letter-spacing:0px;word-spacing:0px;fill:#000000;fill-opacity:1;stroke:none;stroke-width:1px;stroke-linecap:butt;stroke-linejoin:miter;stroke-opacity:1"
       x="-339.09326"
       y="864.53705"
       id="text4168"
       sodipodi:linespacing="125%"
       transform="matrix(0.90630779,-0.42261826,0.42261826,0.90630779,0,0)"><tspan
         sodipodi:role="line"
         id="tspan4170"
         x="-339.09326"
         y="864.53705"
         style="font-style:normal;font-variant:normal;font-weight:bold;font-stretch:normal;font-size:47.84354401px;line-height:125%;font-family:'Courier 10 Pitch';-inkscape-font-specification:'Courier 10 Pitch, Bold';text-align:start;writing-mode:lr-tb;text-anchor:start">satshakit</tspan></text>
    <text
       xml:space="preserve"
       style="font-style:normal;font-weight:normal;font-size:47.84354401px;line-height:125%;font-family:Sans;letter-spacing:0px;word-spacing:0px;fill:#000000;fill-opacity:1;stroke:none;stroke-width:1px;stroke-linecap:butt;stroke-linejoin:miter;stroke-opacity:1"
       x="-296.17712"
       y="931.18311"
       id="text4168-0"
       sodipodi:linespacing="125%"
       transform="matrix(0.90630779,-0.42261826,0.42261826,0.90630779,0,0)"><tspan
         sodipodi:role="line"
         id="tspan4170-5"
         x="-296.17712"
         y="931.18311"
         style="font-style:normal;font-variant:normal;font-weight:bold;font-stretch:normal;font-size:47.84354401px;line-height:125%;font-family:'Courier 10 Pitch';-inkscape-font-specification:'Courier 10 Pitch, Bold';text-align:start;writing-mode:lr-tb;text-anchor:start">inside</tspan></text>
  </g>
</svg>
