<?xml version="1.0" standalone="yes"?>

<svg version="1.1" viewBox="0.0 0.0 378.0 132.0" fill="none" stroke="none" stroke-linecap="square" stroke-miterlimit="10" xmlns="http://www.w3.org/2000/svg" xmlns:xlink="http://www.w3.org/1999/xlink"><clipPath id="p.0"><path d="m0 0l378.0 0l0 132.0l-378.0 0l0 -132.0z" clip-rule="nonzero"></path></clipPath><g clip-path="url(#p.0)"><path fill="#000000" fill-opacity="0.0" d="m0 0l378.91077 0l0 132.39108l-378.91077 0z" fill-rule="nonzero"></path><path fill="#6aa84f" d="m111.82935 62.33858l85.88976 0l0 52.913387l-85.88976 0z" fill-rule="nonzero"></path><path stroke="#666666" stroke-width="8.0" stroke-linejoin="round" stroke-linecap="butt" d="m111.82935 62.33858l85.88976 0l0 52.913387l-85.88976 0z" fill-rule="nonzero"></path><path fill="#3d85c6" d="m11.089239 8.508977l100.755905 0l0 106.74016l-100.755905 0z" fill-rule="nonzero"></path><path stroke="#666666" stroke-width="8.0" stroke-linejoin="round" stroke-linecap="butt" d="m11.089239 8.508977l100.755905 0l0 106.74016l-100.755905 0z" fill-rule="nonzero"></path><path fill="#e69138" d="m367.8084 115.237274l-169.50658 0l0 -53.370075l-86.49343 0l0 -53.37008l256.0 0z" fill-rule="nonzero"></path><path stroke="#666666" stroke-width="8.0" stroke-linejoin="round" stroke-linecap="butt" d="m367.8084 115.237274l-169.50658 0l0 -53.370075l-86.49343 0l0 -53.37008l256.0 0z" fill-rule="nonzero"></path><path fill="#000000" fill-opacity="0.0" d="m21.402435 47.785202l80.09449 0l0 28.18898l-80.09449 0z" fill-rule="nonzero"></path><path fill="#000000" d="m38.999172 59.49469q1.0625 0 1.65625 0.84375q0.609375 0.828125 0.609375 2.265625q0 1.484375 -0.625 2.3125q-0.625 0.8125 -1.6875 0.8125q-1.0625 0 -1.65625 -0.765625l-0.109375 0l-0.28125 0.65625l-1.25 0l0 -8.359375l1.640625 0l0 1.953125q0 0.359375 -0.0625 1.1875l0.0625 0q0.578125 -0.90625 1.703125 -0.90625zm-0.53125 1.3125q-0.609375 0 -0.890625 0.375q-0.265625 0.375 -0.28125 1.234375l0 0.171875q0 0.96875 0.28125 1.390625q0.296875 0.421875 0.921875 0.421875q0.5 0 0.796875 -0.46875q0.296875 -0.46875 0.296875 -1.34375q0 -0.890625 -0.3125 -1.328125q-0.296875 -0.453125 -0.8125 -0.453125zm7.743408 4.8125l-0.3125 -0.8125l-0.046875 0q-0.40625 0.515625 -0.84375 0.71875q-0.4375 0.203125 -1.140625 0.203125q-0.875 0 -1.375 -0.484375q-0.484375 -0.5 -0.484375 -1.421875q0 -0.953125 0.65625 -1.40625q0.671875 -0.453125 2.015625 -0.5l1.046875 -0.03125l0 -0.265625q0 -0.921875 -0.9375 -0.921875q-0.71875 0 -1.6875 0.4375l-0.546875 -1.109375q1.046875 -0.53125 2.296875 -0.53125q1.21875 0 1.859375 0.53125q0.640625 0.515625 0.640625 1.59375l0 4.0l-1.140625 0zm-0.484375 -2.78125l-0.625 0.015625q-0.71875 0.03125 -1.078125 0.265625q-0.34375 0.234375 -0.34375 0.71875q0 0.6875 0.796875 0.6875q0.5625 0 0.90625 -0.328125q0.34375 -0.328125 0.34375 -0.859375l0 -0.5zm5.6395416 1.578125q0.421875 0 1.03125 -0.1875l0 1.21875q-0.609375 0.28125 -1.5 0.28125q-0.984375 0 -1.4375 -0.5q-0.453125 -0.5 -0.453125 -1.484375l0 -2.90625l-0.78125 0l0 -0.6875l0.90625 -0.546875l0.46875 -1.265625l1.046875 0l0 1.28125l1.6875 0l0 1.21875l-1.6875 0l0 2.90625q0 0.34375 0.1875 0.515625q0.203125 0.15625 0.53125 0.15625zm7.641308 1.203125l-1.640625 0l0 -3.5q0 -1.3125 -0.96875 -1.3125q-0.6875 0 -1.0 0.46875q-0.296875 0.46875 -0.296875 1.515625l0 2.828125l-1.640625 0l0 -8.359375l1.640625 0l0 1.703125q0 0.203125 -0.046875 0.9375l-0.03125 0.484375l0.09375 0q0.546875 -0.890625 1.734375 -0.890625q1.0625 0 1.609375 0.578125q0.546875 0.5625 0.546875 1.625l0 3.921875zm4.8160706 -6.125q0.328125 0 0.546875 0.0625l-0.125 1.53125q-0.203125 -0.0625 -0.484375 -0.0625q-0.78125 0 -1.21875 0.40625q-0.4375 0.40625 -0.4375 1.125l0 3.0625l-1.640625 0l0 -6.0l1.234375 0l0.25 1.0l0.078125 0q0.28125 -0.5 0.75 -0.8125q0.484375 -0.3125 1.046875 -0.3125zm2.7921448 3.109375q0 0.890625 0.28125 1.359375q0.296875 0.453125 0.953125 0.453125q0.65625 0 0.9375 -0.453125q0.296875 -0.453125 0.296875 -1.359375q0 -0.890625 -0.296875 -1.328125q-0.28125 -0.453125 -0.9375 -0.453125q-0.65625 0 -0.953125 0.453125q-0.28125 0.4375 -0.28125 1.328125zm4.140625 0q0 1.46875 -0.78125 2.296875q-0.765625 0.828125 -2.140625 0.828125q-0.859375 0 -1.53125 -0.375q-0.65625 -0.390625 -1.015625 -1.09375q-0.34375 -0.703125 -0.34375 -1.65625q0 -1.46875 0.765625 -2.28125q0.765625 -0.828125 2.15625 -0.828125q0.859375 0 1.515625 0.390625q0.671875 0.375 1.015625 1.078125q0.359375 0.703125 0.359375 1.640625zm2.4570923 0q0 0.890625 0.28125 1.359375q0.296875 0.453125 0.953125 0.453125q0.65625 0 0.9375 -0.453125q0.296875 -0.453125 0.296875 -1.359375q0 -0.890625 -0.296875 -1.328125q-0.28125 -0.453125 -0.9375 -0.453125q-0.65625 0 -0.953125 0.453125q-0.28125 0.4375 -0.28125 1.328125zm4.140625 0q0 1.46875 -0.78125 2.296875q-0.765625 0.828125 -2.140625 0.828125q-0.859375 0 -1.53125 -0.375q-0.65625 -0.390625 -1.015625 -1.09375q-0.34375 -0.703125 -0.34375 -1.65625q0 -1.46875 0.765625 -2.28125q0.765625 -0.828125 2.15625 -0.828125q0.859375 0 1.515625 0.390625q0.671875 0.375 1.015625 1.078125q0.359375 0.703125 0.359375 1.640625zm6.5195923 3.015625l-1.640625 0l0 -3.5q0 -0.65625 -0.21875 -0.984375q-0.21875 -0.328125 -0.671875 -0.328125q-0.640625 0 -0.921875 0.46875q-0.28125 0.453125 -0.28125 1.515625l0 2.828125l-1.640625 0l0 -6.0l1.25 0l0.21875 0.765625l0.09375 0q0.25 -0.421875 0.703125 -0.65625q0.453125 -0.234375 1.046875 -0.234375q1.34375 0 1.828125 0.890625l0.140625 0q0.234375 -0.421875 0.703125 -0.65625q0.484375 -0.234375 1.0625 -0.234375q1.03125 0 1.546875 0.53125q0.53125 0.515625 0.53125 1.671875l0 3.921875l-1.640625 0l0 -3.5q0 -0.65625 -0.21875 -0.984375q-0.21875 -0.328125 -0.6875 -0.328125q-0.609375 0 -0.90625 0.4375q-0.296875 0.421875 -0.296875 1.359375l0 3.015625z" fill-rule="nonzero"></path><path fill="#000000" fill-opacity="0.0" d="m119.71829 74.69984l70.11023 0l0 28.18898l-70.11023 0z" fill-rule="nonzero"></path><path fill="#000000" d="m134.1276 87.5812q-0.515625 0 -0.8125 0.328125q-0.296875 0.328125 -0.34375 0.9375l2.296875 0q0 -0.609375 -0.3125 -0.9375q-0.296875 -0.328125 -0.828125 -0.328125zm0.234375 5.0625q-1.453125 0 -2.265625 -0.796875q-0.8125 -0.8125 -0.8125 -2.265625q0 -1.515625 0.75 -2.34375q0.75 -0.828125 2.078125 -0.828125q1.28125 0 1.984375 0.734375q0.71875 0.71875 0.71875 2.0l0 0.796875l-3.875 0q0.03125 0.703125 0.40625 1.09375q0.390625 0.390625 1.09375 0.390625q0.53125 0 1.015625 -0.109375q0.484375 -0.125 1.015625 -0.359375l0 1.265625q-0.421875 0.203125 -0.921875 0.3125q-0.484375 0.109375 -1.1875 0.109375zm9.124054 -0.109375l-1.640625 0l0 -3.5q0 -0.65625 -0.234375 -0.984375q-0.234375 -0.328125 -0.734375 -0.328125q-0.6875 0 -1.0 0.46875q-0.296875 0.453125 -0.296875 1.515625l0 2.828125l-1.640625 0l0 -6.0l1.25 0l0.21875 0.765625l0.09375 0q0.28125 -0.4375 0.75 -0.65625q0.484375 -0.234375 1.09375 -0.234375q1.046875 0 1.59375 0.578125q0.546875 0.5625 0.546875 1.625l0 3.921875zm3.9879456 -1.203125q0.421875 0 1.03125 -0.1875l0 1.21875q-0.609375 0.28125 -1.5 0.28125q-0.984375 0 -1.4375 -0.5q-0.453125 -0.5 -0.453125 -1.484375l0 -2.90625l-0.78125 0l0 -0.6875l0.90625 -0.546875l0.46875 -1.265625l1.046875 0l0 1.28125l1.6875 0l0 1.21875l-1.6875 0l0 2.90625q0 0.34375 0.1875 0.515625q0.203125 0.15625 0.53125 0.15625zm5.4538116 -4.921875q0.328125 0 0.546875 0.0625l-0.125 1.53125q-0.203125 -0.0625 -0.484375 -0.0625q-0.78125 0 -1.21875 0.40625q-0.4375 0.40625 -0.4375 1.125l0 3.0625l-1.640625 0l0 -6.0l1.234375 0l0.25 1.0l0.078125 0q0.28125 -0.5 0.75 -0.8125q0.484375 -0.3125 1.046875 -0.3125zm5.292145 6.125l-0.3125 -0.8125l-0.046875 0q-0.40625 0.515625 -0.84375 0.71875q-0.4375 0.203125 -1.140625 0.203125q-0.875 0 -1.375 -0.484375q-0.484375 -0.5 -0.484375 -1.421875q0 -0.953125 0.65625 -1.40625q0.671875 -0.453125 2.015625 -0.5l1.046875 -0.03125l0 -0.265625q0 -0.921875 -0.9375 -0.921875q-0.71875 0 -1.6875 0.4375l-0.546875 -1.109375q1.046875 -0.53125 2.296875 -0.53125q1.21875 0 1.859375 0.53125q0.640625 0.515625 0.640625 1.59375l0 4.0l-1.140625 0zm-0.484375 -2.78125l-0.625 0.015625q-0.71875 0.03125 -1.078125 0.265625q-0.34375 0.234375 -0.34375 0.71875q0 0.6875 0.796875 0.6875q0.5625 0 0.90625 -0.328125q0.34375 -0.328125 0.34375 -0.859375l0 -0.5zm8.655167 2.78125l-1.640625 0l0 -3.5q0 -0.65625 -0.234375 -0.984375q-0.234375 -0.328125 -0.734375 -0.328125q-0.6875 0 -1.0 0.46875q-0.296875 0.453125 -0.296875 1.515625l0 2.828125l-1.640625 0l0 -6.0l1.25 0l0.21875 0.765625l0.09375 0q0.28125 -0.4375 0.75 -0.65625q0.484375 -0.234375 1.09375 -0.234375q1.046875 0 1.59375 0.578125q0.546875 0.5625 0.546875 1.625l0 3.921875zm3.8941956 0.109375q-2.796875 0 -2.796875 -3.078125q0 -1.53125 0.75 -2.34375q0.765625 -0.8125 2.1875 -0.8125q1.046875 0 1.875 0.421875l-0.484375 1.265625q-0.390625 -0.15625 -0.71875 -0.25q-0.328125 -0.109375 -0.671875 -0.109375q-1.265625 0 -1.265625 1.8125q0 1.765625 1.265625 1.765625q0.484375 0 0.875 -0.125q0.40625 -0.125 0.8125 -0.390625l0 1.390625q-0.390625 0.25 -0.796875 0.34375q-0.40625 0.109375 -1.03125 0.109375zm5.525894 -5.0625q-0.515625 0 -0.8125 0.328125q-0.296875 0.328125 -0.34375 0.9375l2.296875 0q0 -0.609375 -0.3125 -0.9375q-0.296875 -0.328125 -0.828125 -0.328125zm0.234375 5.0625q-1.453125 0 -2.265625 -0.796875q-0.8125 -0.8125 -0.8125 -2.265625q0 -1.515625 0.75 -2.34375q0.75 -0.828125 2.078125 -0.828125q1.28125 0 1.984375 0.734375q0.71875 0.71875 0.71875 2.0l0 0.796875l-3.875 0q0.03125 0.703125 0.40625 1.09375q0.390625 0.390625 1.09375 0.390625q0.53125 0 1.015625 -0.109375q0.484375 -0.125 1.015625 -0.359375l0 1.265625q-0.421875 0.203125 -0.921875 0.3125q-0.484375 0.109375 -1.1875 0.109375z" fill-rule="nonzero"></path><path fill="#000000" fill-opacity="0.0" d="m229.94728 47.785202l100.755905 0l0 28.18898l-100.755905 0z" fill-rule="nonzero"></path><path fill="#000000" d="m260.3879 59.49469q1.0625 0 1.65625 0.84375q0.609375 0.828125 0.609375 2.265625q0 1.484375 -0.625 2.3125q-0.625 0.8125 -1.6875 0.8125q-1.0625 0 -1.65625 -0.765625l-0.109375 0l-0.28125 0.65625l-1.25 0l0 -8.359375l1.640625 0l0 1.953125q0 0.359375 -0.0625 1.1875l0.0625 0q0.578125 -0.90625 1.703125 -0.90625zm-0.53125 1.3125q-0.609375 0 -0.890625 0.375q-0.265625 0.375 -0.28125 1.234375l0 0.171875q0 0.96875 0.28125 1.390625q0.296875 0.421875 0.921875 0.421875q0.5 0 0.796875 -0.46875q0.296875 -0.46875 0.296875 -1.34375q0 -0.890625 -0.3125 -1.328125q-0.296875 -0.453125 -0.8125 -0.453125zm6.415283 -0.140625q-0.515625 0 -0.8125 0.328125q-0.296875 0.328125 -0.34375 0.9375l2.296875 0q0 -0.609375 -0.3125 -0.9375q-0.296875 -0.328125 -0.828125 -0.328125zm0.234375 5.0625q-1.453125 0 -2.265625 -0.796875q-0.8125 -0.8125 -0.8125 -2.265625q0 -1.515625 0.75 -2.34375q0.75 -0.828125 2.078125 -0.828125q1.28125 0 1.984375 0.734375q0.71875 0.71875 0.71875 2.0l0 0.796875l-3.875 0q0.03125 0.703125 0.40625 1.09375q0.390625 0.390625 1.09375 0.390625q0.53125 0 1.015625 -0.109375q0.484375 -0.125 1.015625 -0.359375l0 1.265625q-0.421875 0.203125 -0.921875 0.3125q-0.484375 0.109375 -1.1875 0.109375zm5.483429 0q-1.0625 0 -1.671875 -0.8125q-0.59375 -0.828125 -0.59375 -2.28125q0 -1.484375 0.609375 -2.3125q0.609375 -0.828125 1.6875 -0.828125q1.140625 0 1.734375 0.890625l0.0625 0q-0.125 -0.671875 -0.125 -1.203125l0 -1.921875l1.640625 0l0 8.359375l-1.265625 0l-0.3125 -0.78125l-0.0625 0q-0.5625 0.890625 -1.703125 0.890625zm0.5625 -1.3125q0.640625 0 0.921875 -0.359375q0.296875 -0.359375 0.328125 -1.234375l0 -0.1875q0 -0.96875 -0.296875 -1.375q-0.296875 -0.421875 -0.96875 -0.421875q-0.546875 0 -0.859375 0.46875q-0.296875 0.453125 -0.296875 1.34375q0 0.890625 0.296875 1.328125q0.3125 0.4375 0.875 0.4375zm7.634033 -4.921875q0.328125 0 0.546875 0.0625l-0.125 1.53125q-0.203125 -0.0625 -0.484375 -0.0625q-0.78125 0 -1.21875 0.40625q-0.4375 0.40625 -0.4375 1.125l0 3.0625l-1.640625 0l0 -6.0l1.234375 0l0.25 1.0l0.078125 0q0.28125 -0.5 0.75 -0.8125q0.484375 -0.3125 1.046875 -0.3125zm2.7921448 3.109375q0 0.890625 0.28125 1.359375q0.296875 0.453125 0.953125 0.453125q0.65625 0 0.9375 -0.453125q0.296875 -0.453125 0.296875 -1.359375q0 -0.890625 -0.296875 -1.328125q-0.28125 -0.453125 -0.9375 -0.453125q-0.65625 0 -0.953125 0.453125q-0.28125 0.4375 -0.28125 1.328125zm4.140625 0q0 1.46875 -0.78125 2.296875q-0.765625 0.828125 -2.140625 0.828125q-0.859375 0 -1.53125 -0.375q-0.65625 -0.390625 -1.015625 -1.09375q-0.34375 -0.703125 -0.34375 -1.65625q0 -1.46875 0.765625 -2.28125q0.765625 -0.828125 2.15625 -0.828125q0.859375 0 1.515625 0.390625q0.671875 0.375 1.015625 1.078125q0.359375 0.703125 0.359375 1.640625zm2.4570923 0q0 0.890625 0.28125 1.359375q0.296875 0.453125 0.953125 0.453125q0.65625 0 0.9375 -0.453125q0.296875 -0.453125 0.296875 -1.359375q0 -0.890625 -0.296875 -1.328125q-0.28125 -0.453125 -0.9375 -0.453125q-0.65625 0 -0.953125 0.453125q-0.28125 0.4375 -0.28125 1.328125zm4.140625 0q0 1.46875 -0.78125 2.296875q-0.765625 0.828125 -2.140625 0.828125q-0.859375 0 -1.53125 -0.375q-0.65625 -0.390625 -1.015625 -1.09375q-0.34375 -0.703125 -0.34375 -1.65625q0 -1.46875 0.765625 -2.28125q0.765625 -0.828125 2.15625 -0.828125q0.859375 0 1.515625 0.390625q0.671875 0.375 1.015625 1.078125q0.359375 0.703125 0.359375 1.640625zm6.5195923 3.015625l-1.640625 0l0 -3.5q0 -0.65625 -0.21875 -0.984375q-0.21875 -0.328125 -0.671875 -0.328125q-0.640625 0 -0.921875 0.46875q-0.28125 0.453125 -0.28125 1.515625l0 2.828125l-1.640625 0l0 -6.0l1.25 0l0.21875 0.765625l0.09375 0q0.25 -0.421875 0.703125 -0.65625q0.453125 -0.234375 1.046875 -0.234375q1.34375 0 1.828125 0.890625l0.140625 0q0.234375 -0.421875 0.703125 -0.65625q0.484375 -0.234375 1.0625 -0.234375q1.03125 0 1.546875 0.53125q0.53125 0.515625 0.53125 1.671875l0 3.921875l-1.640625 0l0 -3.5q0 -0.65625 -0.21875 -0.984375q-0.21875 -0.328125 -0.6875 -0.328125q-0.609375 0 -0.90625 0.4375q-0.296875 0.421875 -0.296875 1.359375l0 3.015625z" fill-rule="nonzero"></path></g></svg>

